<mxfile host="app.diagrams.net" modified="2024-01-23T06:08:04.362Z" agent="Mozilla/5.0 (Windows NT 10.0; Win64; x64) AppleWebKit/537.36 (KHTML, like Gecko) Chrome/120.0.0.0 Safari/537.36" etag="H2YkGGlU1qMGzcv0tx8m" version="22.1.18" type="github">
  <diagram name="第 1 页" id="fnBkCTot6Ez0o81d7CIG">
    <mxGraphModel dx="2925" dy="1143" grid="1" gridSize="10" guides="1" tooltips="1" connect="1" arrows="1" fold="1" page="1" pageScale="1" pageWidth="827" pageHeight="1169" math="0" shadow="0">
      <root>
        <mxCell id="0" />
        <mxCell id="1" parent="0" />
        <mxCell id="kYNa-zEm1gCkG2qr6x2S-17" value="" style="edgeStyle=orthogonalEdgeStyle;rounded=0;orthogonalLoop=1;jettySize=auto;html=1;fontSize=15;fontStyle=1" parent="1" source="kYNa-zEm1gCkG2qr6x2S-15" target="kYNa-zEm1gCkG2qr6x2S-16" edge="1">
          <mxGeometry relative="1" as="geometry" />
        </mxCell>
        <mxCell id="kYNa-zEm1gCkG2qr6x2S-15" value="数据输入&lt;br style=&quot;font-size: 15px;&quot;&gt;(α）" style="rounded=1;whiteSpace=wrap;html=1;absoluteArcSize=1;arcSize=14;strokeWidth=2;fontSize=15;fontStyle=1" parent="1" vertex="1">
          <mxGeometry x="350" y="140" width="150" height="50" as="geometry" />
        </mxCell>
        <mxCell id="kYNa-zEm1gCkG2qr6x2S-16" value="预处理" style="ellipse;shape=cloud;whiteSpace=wrap;html=1;fontSize=15;fontStyle=1" parent="1" vertex="1">
          <mxGeometry x="350" y="230" width="150" height="80" as="geometry" />
        </mxCell>
        <mxCell id="kYNa-zEm1gCkG2qr6x2S-18" value="" style="shape=curlyBracket;whiteSpace=wrap;html=1;rounded=1;labelPosition=left;verticalLabelPosition=middle;align=right;verticalAlign=middle;fontSize=15;fontStyle=1" parent="1" vertex="1">
          <mxGeometry x="500" y="195" width="20" height="120" as="geometry" />
        </mxCell>
        <mxCell id="kYNa-zEm1gCkG2qr6x2S-19" value="插值" style="rounded=0;whiteSpace=wrap;html=1;fontSize=15;fontStyle=1" parent="1" vertex="1">
          <mxGeometry x="530" y="185" width="120" height="30" as="geometry" />
        </mxCell>
        <mxCell id="kYNa-zEm1gCkG2qr6x2S-20" value="去瑞利散射" style="rounded=0;whiteSpace=wrap;html=1;fontSize=15;fontStyle=1" parent="1" vertex="1">
          <mxGeometry x="530" y="225" width="120" height="30" as="geometry" />
        </mxCell>
        <mxCell id="kYNa-zEm1gCkG2qr6x2S-21" value="最大最小归一化" style="rounded=0;whiteSpace=wrap;html=1;fontSize=15;fontStyle=1" parent="1" vertex="1">
          <mxGeometry x="530" y="305" width="120" height="30" as="geometry" />
        </mxCell>
        <mxCell id="kYNa-zEm1gCkG2qr6x2S-22" value="S-G平滑" style="rounded=0;whiteSpace=wrap;html=1;fontSize=15;fontStyle=1" parent="1" vertex="1">
          <mxGeometry x="530" y="265" width="120" height="30" as="geometry" />
        </mxCell>
        <mxCell id="kYNa-zEm1gCkG2qr6x2S-31" value="" style="edgeStyle=orthogonalEdgeStyle;rounded=0;orthogonalLoop=1;jettySize=auto;html=1;fontSize=15;fontStyle=1" parent="1" source="kYNa-zEm1gCkG2qr6x2S-26" edge="1">
          <mxGeometry relative="1" as="geometry">
            <mxPoint x="71.0344827586207" y="490" as="targetPoint" />
          </mxGeometry>
        </mxCell>
        <mxCell id="kYNa-zEm1gCkG2qr6x2S-26" value="选择主元数" style="rounded=1;whiteSpace=wrap;html=1;absoluteArcSize=1;arcSize=14;strokeWidth=2;fontSize=15;fontStyle=1" parent="1" vertex="1">
          <mxGeometry x="-4" y="410" width="150" height="50" as="geometry" />
        </mxCell>
        <mxCell id="kYNa-zEm1gCkG2qr6x2S-39" value="" style="edgeStyle=orthogonalEdgeStyle;rounded=0;orthogonalLoop=1;jettySize=auto;html=1;fontSize=15;fontStyle=1" parent="1" source="kYNa-zEm1gCkG2qr6x2S-27" target="kYNa-zEm1gCkG2qr6x2S-37" edge="1">
          <mxGeometry relative="1" as="geometry" />
        </mxCell>
        <mxCell id="kYNa-zEm1gCkG2qr6x2S-27" value="选择主元数" style="rounded=1;whiteSpace=wrap;html=1;absoluteArcSize=1;arcSize=14;strokeWidth=2;fontSize=15;fontStyle=1" parent="1" vertex="1">
          <mxGeometry x="173" y="410" width="150" height="50" as="geometry" />
        </mxCell>
        <mxCell id="kYNa-zEm1gCkG2qr6x2S-41" value="" style="edgeStyle=orthogonalEdgeStyle;rounded=0;orthogonalLoop=1;jettySize=auto;html=1;fontSize=15;fontStyle=1" parent="1" source="kYNa-zEm1gCkG2qr6x2S-28" target="kYNa-zEm1gCkG2qr6x2S-40" edge="1">
          <mxGeometry relative="1" as="geometry" />
        </mxCell>
        <mxCell id="kYNa-zEm1gCkG2qr6x2S-28" value="选择因子数" style="rounded=1;whiteSpace=wrap;html=1;absoluteArcSize=1;arcSize=14;strokeWidth=2;fontSize=15;fontStyle=1" parent="1" vertex="1">
          <mxGeometry x="350" y="410" width="150" height="50" as="geometry" />
        </mxCell>
        <mxCell id="kYNa-zEm1gCkG2qr6x2S-36" value="计算参数" style="rounded=1;whiteSpace=wrap;html=1;absoluteArcSize=1;arcSize=14;strokeWidth=2;fontSize=15;fontStyle=1" parent="1" vertex="1">
          <mxGeometry x="-4" y="490" width="150" height="50" as="geometry" />
        </mxCell>
        <mxCell id="kYNa-zEm1gCkG2qr6x2S-37" value="Computing Weights" style="rounded=1;whiteSpace=wrap;html=1;absoluteArcSize=1;arcSize=14;strokeWidth=2;fontSize=15;fontStyle=1" parent="1" vertex="1">
          <mxGeometry x="173" y="491" width="150" height="50" as="geometry" />
        </mxCell>
        <mxCell id="kYNa-zEm1gCkG2qr6x2S-40" value="Computing Weights" style="rounded=1;whiteSpace=wrap;html=1;absoluteArcSize=1;arcSize=14;strokeWidth=2;fontSize=15;fontStyle=1" parent="1" vertex="1">
          <mxGeometry x="350" y="491" width="150" height="50" as="geometry" />
        </mxCell>
        <mxCell id="kYNa-zEm1gCkG2qr6x2S-44" value="网络训练" style="rounded=1;whiteSpace=wrap;html=1;absoluteArcSize=1;arcSize=14;strokeWidth=2;fontSize=15;fontStyle=1" parent="1" vertex="1">
          <mxGeometry x="530" y="410" width="150" height="50" as="geometry" />
        </mxCell>
        <mxCell id="kYNa-zEm1gCkG2qr6x2S-48" value="Best model" style="rounded=1;whiteSpace=wrap;html=1;absoluteArcSize=1;arcSize=14;strokeWidth=2;fillColor=#d5e8d4;strokeColor=#82b366;fontSize=15;fontStyle=1" parent="1" vertex="1">
          <mxGeometry x="187" y="630" width="100" height="50" as="geometry" />
        </mxCell>
        <mxCell id="kYNa-zEm1gCkG2qr6x2S-49" value="Best model" style="rounded=1;whiteSpace=wrap;html=1;absoluteArcSize=1;arcSize=14;strokeWidth=2;fillColor=#d5e8d4;strokeColor=#82b366;fontSize=15;fontStyle=1" parent="1" vertex="1">
          <mxGeometry x="355" y="630" width="100" height="50" as="geometry" />
        </mxCell>
        <mxCell id="kYNa-zEm1gCkG2qr6x2S-51" value="" style="edgeStyle=orthogonalEdgeStyle;rounded=0;orthogonalLoop=1;jettySize=auto;html=1;fontSize=15;fontStyle=1" parent="1" edge="1">
          <mxGeometry relative="1" as="geometry">
            <mxPoint x="425" y="380" as="sourcePoint" />
            <mxPoint x="603" y="410" as="targetPoint" />
            <Array as="points">
              <mxPoint x="515" y="380" />
              <mxPoint x="603" y="380" />
            </Array>
          </mxGeometry>
        </mxCell>
        <mxCell id="kYNa-zEm1gCkG2qr6x2S-52" value="" style="edgeStyle=orthogonalEdgeStyle;rounded=0;orthogonalLoop=1;jettySize=auto;html=1;entryX=0.5;entryY=0;entryDx=0;entryDy=0;fontSize=15;fontStyle=1" parent="1" target="kYNa-zEm1gCkG2qr6x2S-26" edge="1">
          <mxGeometry relative="1" as="geometry">
            <mxPoint x="430" y="380" as="sourcePoint" />
            <mxPoint x="613" y="420" as="targetPoint" />
            <Array as="points">
              <mxPoint x="70" y="380" />
              <mxPoint x="70" y="410" />
            </Array>
          </mxGeometry>
        </mxCell>
        <mxCell id="kYNa-zEm1gCkG2qr6x2S-60" value="Best model" style="rounded=1;whiteSpace=wrap;html=1;absoluteArcSize=1;arcSize=14;strokeWidth=2;fillColor=#d5e8d4;strokeColor=#82b366;fontSize=15;fontStyle=1" parent="1" vertex="1">
          <mxGeometry x="10" y="630" width="100" height="50" as="geometry" />
        </mxCell>
        <mxCell id="kYNa-zEm1gCkG2qr6x2S-66" value="" style="edgeStyle=orthogonalEdgeStyle;rounded=0;orthogonalLoop=1;jettySize=auto;html=1;fontSize=15;fontStyle=1" parent="1" source="kYNa-zEm1gCkG2qr6x2S-61" target="kYNa-zEm1gCkG2qr6x2S-65" edge="1">
          <mxGeometry relative="1" as="geometry" />
        </mxCell>
        <mxCell id="kYNa-zEm1gCkG2qr6x2S-61" value="Model evaluation&lt;br style=&quot;font-size: 15px;&quot;&gt;(&amp;nbsp;β)" style="rounded=1;whiteSpace=wrap;html=1;absoluteArcSize=1;arcSize=14;strokeWidth=2;fontSize=15;fontStyle=1" parent="1" vertex="1">
          <mxGeometry x="330" y="732" width="150" height="50" as="geometry" />
        </mxCell>
        <mxCell id="kYNa-zEm1gCkG2qr6x2S-62" value="验证集&lt;br style=&quot;font-size: 15px;&quot;&gt;(α)" style="rounded=1;whiteSpace=wrap;html=1;absoluteArcSize=1;arcSize=14;strokeWidth=2;fontSize=15;fontStyle=1" parent="1" vertex="1">
          <mxGeometry x="-150" y="140" width="150" height="50" as="geometry" />
        </mxCell>
        <mxCell id="kYNa-zEm1gCkG2qr6x2S-63" value="Result&lt;br style=&quot;font-size: 15px;&quot;&gt;(α-&amp;gt;α)" style="whiteSpace=wrap;html=1;rounded=1;arcSize=14;strokeWidth=2;fontSize=15;fontStyle=1" parent="1" vertex="1">
          <mxGeometry x="-160" y="555" width="120" height="60" as="geometry" />
        </mxCell>
        <mxCell id="kYNa-zEm1gCkG2qr6x2S-65" value="Result&lt;br style=&quot;font-size: 15px;&quot;&gt;(α-&amp;gt;β)" style="whiteSpace=wrap;html=1;rounded=1;arcSize=14;strokeWidth=2;fontSize=15;fontStyle=1" parent="1" vertex="1">
          <mxGeometry x="345" y="812" width="120" height="60" as="geometry" />
        </mxCell>
        <mxCell id="kYNa-zEm1gCkG2qr6x2S-67" value="" style="endArrow=none;html=1;rounded=0;" parent="1" edge="1">
          <mxGeometry width="50" height="50" relative="1" as="geometry">
            <mxPoint x="60" y="700" as="sourcePoint" />
            <mxPoint x="590" y="700" as="targetPoint" />
          </mxGeometry>
        </mxCell>
        <mxCell id="kYNa-zEm1gCkG2qr6x2S-69" value="" style="edgeStyle=orthogonalEdgeStyle;rounded=0;orthogonalLoop=1;jettySize=auto;html=1;fontSize=15;fontStyle=1" parent="1" edge="1">
          <mxGeometry relative="1" as="geometry">
            <mxPoint x="59.860000000000014" y="680" as="sourcePoint" />
            <mxPoint x="59.860000000000014" y="700" as="targetPoint" />
          </mxGeometry>
        </mxCell>
        <mxCell id="kYNa-zEm1gCkG2qr6x2S-70" value="" style="edgeStyle=orthogonalEdgeStyle;rounded=0;orthogonalLoop=1;jettySize=auto;html=1;fontSize=15;fontStyle=1" parent="1" edge="1">
          <mxGeometry relative="1" as="geometry">
            <mxPoint x="236.86" y="681" as="sourcePoint" />
            <mxPoint x="236.86" y="700" as="targetPoint" />
          </mxGeometry>
        </mxCell>
        <mxCell id="kYNa-zEm1gCkG2qr6x2S-72" value="" style="edgeStyle=orthogonalEdgeStyle;rounded=0;orthogonalLoop=1;jettySize=auto;html=1;fontSize=15;fontStyle=1" parent="1" edge="1">
          <mxGeometry relative="1" as="geometry">
            <mxPoint x="589.86" y="681" as="sourcePoint" />
            <mxPoint x="589.86" y="700" as="targetPoint" />
          </mxGeometry>
        </mxCell>
        <mxCell id="kYNa-zEm1gCkG2qr6x2S-75" value="" style="edgeStyle=orthogonalEdgeStyle;rounded=0;orthogonalLoop=1;jettySize=auto;html=1;" parent="1" edge="1">
          <mxGeometry relative="1" as="geometry">
            <mxPoint x="219" y="701" as="sourcePoint" />
            <mxPoint x="219" y="731" as="targetPoint" />
          </mxGeometry>
        </mxCell>
        <mxCell id="kYNa-zEm1gCkG2qr6x2S-76" value="&lt;b&gt;&lt;font style=&quot;font-size: 17px;&quot;&gt;PCA&lt;/font&gt;&lt;/b&gt;" style="text;html=1;strokeColor=none;fillColor=none;align=center;verticalAlign=middle;whiteSpace=wrap;rounded=0;" parent="1" vertex="1">
          <mxGeometry x="45" y="348" width="60" height="30" as="geometry" />
        </mxCell>
        <mxCell id="kYNa-zEm1gCkG2qr6x2S-77" value="&lt;span style=&quot;font-size: 17px;&quot;&gt;&lt;b&gt;PLS&lt;br&gt;&lt;/b&gt;&lt;/span&gt;" style="text;html=1;strokeColor=none;fillColor=none;align=center;verticalAlign=middle;whiteSpace=wrap;rounded=0;" parent="1" vertex="1">
          <mxGeometry x="222" y="348" width="60" height="30" as="geometry" />
        </mxCell>
        <mxCell id="kYNa-zEm1gCkG2qr6x2S-78" value="&lt;span style=&quot;font-size: 17px;&quot;&gt;&lt;b&gt;PARAFAC&lt;br&gt;&lt;/b&gt;&lt;/span&gt;" style="text;html=1;strokeColor=none;fillColor=default;align=center;verticalAlign=middle;whiteSpace=wrap;rounded=0;gradientColor=none;" parent="1" vertex="1">
          <mxGeometry x="395" y="348" width="60" height="30" as="geometry" />
        </mxCell>
        <mxCell id="kYNa-zEm1gCkG2qr6x2S-79" value="&lt;span style=&quot;font-size: 17px;&quot;&gt;&lt;b&gt;OPCNN&lt;br&gt;&lt;/b&gt;&lt;/span&gt;" style="text;html=1;strokeColor=none;fillColor=none;align=center;verticalAlign=middle;whiteSpace=wrap;rounded=0;" parent="1" vertex="1">
          <mxGeometry x="700" y="348" width="60" height="30" as="geometry" />
        </mxCell>
        <mxCell id="DT5Re2PkKRTF_ifMx4JU-1" value="" style="edgeStyle=orthogonalEdgeStyle;rounded=0;orthogonalLoop=1;jettySize=auto;html=1;fontSize=15;fontStyle=1" parent="1" edge="1">
          <mxGeometry relative="1" as="geometry">
            <mxPoint x="545" y="380" as="sourcePoint" />
            <mxPoint x="723" y="410" as="targetPoint" />
            <Array as="points">
              <mxPoint x="723" y="380" />
            </Array>
          </mxGeometry>
        </mxCell>
        <mxCell id="RQuAEKyiK-EMNLNWBClG-4" value="&lt;span style=&quot;font-size: 17px;&quot;&gt;&lt;b&gt;CNN&lt;br&gt;&lt;/b&gt;&lt;/span&gt;" style="text;html=1;strokeColor=none;fillColor=none;align=center;verticalAlign=middle;whiteSpace=wrap;rounded=0;" vertex="1" parent="1">
          <mxGeometry x="580" y="348" width="60" height="30" as="geometry" />
        </mxCell>
        <mxCell id="RQuAEKyiK-EMNLNWBClG-5" value="网络训练" style="rounded=1;whiteSpace=wrap;html=1;absoluteArcSize=1;arcSize=14;strokeWidth=2;fontSize=15;fontStyle=1" vertex="1" parent="1">
          <mxGeometry x="700" y="410" width="150" height="50" as="geometry" />
        </mxCell>
      </root>
    </mxGraphModel>
  </diagram>
</mxfile>
